<svg fill="currentColor" width="20.28" height="15.9" viewBox="0 0 20.28 15.9" version="1.1" xmlns="http://www.w3.org/2000/svg">
    <g transform="translate(-253.000000, -738.040000)" >
        <g transform="translate(16.000000, 729.000000)">
            <g transform="translate(237.000000, 9.000000)">
                <path d="M19.6048193,2.5253012 C19.2,2.10120482 18.6409639,1.85060241 18.0048193,1.85060241 L14.8048193,1.85060241 L14.8048193,1.81204819 C14.8048193,1.33012048 14.6120482,0.86746988 14.2843373,0.559036145 C13.9566265,0.231325301 13.513253,0.0385542169 13.0313253,0.0385542169 L7.24819277,0.0385542169 C6.74698795,0.0385542169 6.30361446,0.231325301 5.97590361,0.559036145 C5.64819277,0.886746988 5.45542169,1.33012048 5.45542169,1.81204819 L5.45542169,1.85060241 L2.2746988,1.85060241 C1.63855422,1.85060241 1.07951807,2.10120482 0.674698795,2.5253012 C0.269879518,2.93012048 1.36972094e-15,3.50843373 1.36972094e-15,4.1253012 L1.36972094e-15,13.7253012 C1.36972094e-15,14.3614458 0.25060241,14.9204819 0.674698795,15.3253012 C1.07951807,15.7301205 1.65783133,16 2.2746988,16 L18.0048193,16 C18.6409639,16 19.2,15.7493976 19.6048193,15.3253012 C20.0096386,14.9204819 20.2795181,14.3421687 20.2795181,13.7253012 L20.2795181,4.1253012 C20.2795181,3.48915663 20.0289157,2.93012048 19.6048193,2.5253012 Z M19.2771084,13.7253012 L19.2578313,13.7253012 C19.2578313,14.0722892 19.1228916,14.3807229 18.8915663,14.6120482 C18.660241,14.8433735 18.3518072,14.9783133 18.0048193,14.9783133 L2.2746988,14.9783133 C1.92771084,14.9783133 1.61927711,14.8433735 1.38795181,14.6120482 C1.15662651,14.3807229 1.02168675,14.0722892 1.02168675,13.7253012 L1.02168675,4.1253012 C1.02168675,3.77831325 1.15662651,3.46987952 1.38795181,3.23855422 C1.61927711,3.00722892 1.92771084,2.87228916 2.2746988,2.87228916 L5.99518072,2.87228916 C6.28433735,2.87228916 6.51566265,2.64096386 6.51566265,2.35180723 L6.51566265,1.79277108 C6.51566265,1.58072289 6.59277108,1.38795181 6.72771084,1.25301205 C6.8626506,1.11807229 7.05542169,1.04096386 7.26746988,1.04096386 L13.0313253,1.04096386 C13.2433735,1.04096386 13.4361446,1.11807229 13.5710843,1.25301205 C13.7060241,1.38795181 13.7831325,1.58072289 13.7831325,1.79277108 L13.7831325,2.35180723 C13.7831325,2.64096386 14.0144578,2.87228916 14.3036145,2.87228916 L18.0240964,2.87228916 C18.3710843,2.87228916 18.6795181,3.00722892 18.9108434,3.23855422 C19.1421687,3.46987952 19.2771084,3.77831325 19.2771084,4.1253012 L19.2771084,13.7253012 Z" />
                <path d="M10.139759,4.18313253 C8.82891566,4.18313253 7.63373494,4.72289157 6.78554217,5.57108434 C5.91807229,6.43855422 5.39759036,7.61445783 5.39759036,8.9253012 C5.39759036,10.2361446 5.9373494,11.4313253 6.78554217,12.2795181 C7.65301205,13.146988 8.82891566,13.6674699 10.139759,13.6674699 C11.4506024,13.6674699 12.6457831,13.1277108 13.4939759,12.2795181 C14.3614458,11.4120482 14.8819277,10.2361446 14.8819277,8.9253012 C14.8819277,7.61445783 14.3421687,6.41927711 13.4939759,5.57108434 C12.6457831,4.72289157 11.4506024,4.18313253 10.139759,4.18313253 Z M12.7614458,11.5662651 C12.086747,12.2216867 11.1614458,12.6457831 10.139759,12.6457831 C9.11807229,12.6457831 8.19277108,12.2216867 7.51807229,11.5662651 C6.84337349,10.8915663 6.43855422,9.96626506 6.43855422,8.94457831 C6.43855422,7.92289157 6.8626506,6.99759036 7.51807229,6.32289157 C8.19277108,5.64819277 9.11807229,5.24337349 10.139759,5.24337349 C11.1614458,5.24337349 12.086747,5.66746988 12.7614458,6.32289157 C13.4361446,6.99759036 13.8409639,7.92289157 13.8409639,8.94457831 C13.860241,9.96626506 13.4361446,10.8915663 12.7614458,11.5662651 Z" />
                <circle cx="17.0024096" cy="5.10843373" r="1" />
            </g>
        </g>
    </g>
</svg>