<svg width="70" height="65.35" viewBox="0 0 70 65.35" fill="currentColor" xmlns="http://www.w3.org/2000/svg">
    <path d="M45.5537 13.4039C41.6019 5.33478 33.3354 0 24.063 0C10.7952 0 0.00105359 10.7329 0.00105359 23.9252C0.00105359 27.5104 0.770762 30.9468 2.28994 34.1507L0.0408378 45.3976C-0.245445 46.8293 1.01753 48.0947 2.44949 47.8115L13.835 45.5604C15.368 46.2876 16.9539 46.8406 18.5834 47.2217C14.9308 29.9216 28.044 13.6825 45.5537 13.4039Z"/>
    <path d="M67.7105 51.6503C68.1034 50.8216 68.445 49.9773 68.7373 49.1191H68.6623C73.782 34.0917 63.0152 18.2978 47.1204 17.5288C47.1202 17.528 47.12 17.5272 47.1197 17.5263C33.4433 16.8961 22.0806 27.8464 22.0806 41.4248C22.0806 54.606 32.7937 65.3304 45.9706 65.3496C49.5448 65.3448 52.9706 64.5753 56.1652 63.06C68.6347 65.5252 67.6622 65.35 67.9486 65.35C69.2445 65.35 70.2126 64.1625 69.9596 62.8972L67.7105 51.6503Z"/>
</svg>
