<svg width="16" height="10.2" viewBox="0 0 16 10.2" version="1.1" xmlns="http://www.w3.org/2000/svg">
    <g transform="translate(-50.000000, -676.020000)">
        <g transform="translate(16.000000, 104.000000)">
            <g transform="translate(8.000000, 559.000000)">
                <g transform="translate(26.000000, 13.000000)">
                    <path d="M15.8982813,4.81378125 C15.7553438,4.61825 12.349625,0.02609375 7.99990625,0.02609375 C3.6501875,0.02609375 0.2443125,4.61825 0.10153125,4.81359375 C-0.03384375,4.99909375 -0.03384375,5.2506875 0.10153125,5.4361875 C0.2443125,5.63171875 3.6501875,10.223875 7.99990625,10.223875 C12.349625,10.223875 15.7553438,5.6316875 15.8982813,5.43634375 C16.0338438,5.250875 16.0338438,4.99909375 15.8982813,4.81378125 Z M7.99990625,9.1689375 C4.795875,9.1689375 2.02084375,6.12103125 1.199375,5.124625 C2.01978125,4.12734375 4.789,1.08103125 7.99990625,1.08103125 C11.2037812,1.08103125 13.978625,4.12840625 14.8004375,5.12534375 C13.9800312,6.12259375 11.2108125,9.1689375 7.99990625,9.1689375 Z" />
                    <path d="M7.99990625,1.96015625 C6.25484375,1.96015625 4.8350625,3.3799375 4.8350625,5.125 C4.8350625,6.8700625 6.25484375,8.28984375 7.99990625,8.28984375 C9.74496875,8.28984375 11.16475,6.8700625 11.16475,5.125 C11.16475,3.3799375 9.74496875,1.96015625 7.99990625,1.96015625 Z M7.99990625,7.234875 C6.83646875,7.234875 5.89003125,6.28840625 5.89003125,5.125 C5.89003125,3.96159375 6.8365,3.015125 7.99990625,3.015125 C9.1633125,3.015125 10.1097813,3.96159375 10.1097813,5.125 C10.1097813,6.28840625 9.16334375,7.234875 7.99990625,7.234875 Z" />
                </g>
            </g>
        </g>
    </g>
</svg>