<svg fill="currentColor" width="20" height="20" viewBox="0 0 20 20" version="1.1" xmlns="http://www.w3.org/2000/svg">
    <g transform="translate(-340.000000, -55.000000)">
        <g transform="translate(340.000000, 55.000000)">
            <path d="M7.75571428,9.28575353 C7.36836801,7.76382361 5.82057353,6.84406931 4.29860188,7.23141565 C3.28928343,7.48830725 2.5011562,8.27643491 2.24426464,9.28575353 L0.714299137,9.28575353 C0.319796082,9.28575353 0,9.60554974 0,10.0000529 C0,10.394556 0.319796082,10.7143101 0.714299137,10.7143101 L2.24430647,10.7143101 C2.63165274,12.23624 4.17944722,13.155994 5.70141887,12.7686476 C6.71073733,12.511756 7.49886487,11.7236287 7.75575643,10.7143101 L19.2857001,10.7143101 C19.6802032,10.7143101 20,10.3945138 20,10.0000107 C20,9.6055076 19.6802032,9.28575353 19.2857001,9.28575353 L7.75571428,9.28575353 Z M3.57145393,10.0000529 C3.57145393,9.21108845 4.21104626,8.5714957 5.00001054,8.5714957 C5.78897482,8.5714957 6.42856714,9.21108845 6.42856714,10.0000529 C6.42856714,10.7890173 5.78897482,11.4286087 5.00001054,11.4286087 C4.21104626,11.4286087 3.57145393,10.7890173 3.57145393,10.0000529 Z" />
            <path d="M17.0414361,2.14286964 C16.6540899,0.620940028 15.1062957,-0.298813909 13.5843241,0.0885323499 C12.5750056,0.345423902 11.7868774,1.13355122 11.5299859,2.14286964 L0.714299137,2.14286964 C0.319796082,2.14286964 0,2.46266563 0,2.85716867 C0,3.25167172 0.319796082,3.57146787 0.714299137,3.57146787 L11.5299859,3.57146787 C11.9173321,5.09339748 13.4651276,6.01315162 14.9870992,5.62580536 C15.9964177,5.36891381 16.7845446,4.58078629 17.0414361,3.57146787 L19.2857001,3.57146787 C19.6802032,3.57146787 20,3.25167172 20,2.85716867 C20,2.46266563 19.6802032,2.14286964 19.2857001,2.14286964 L17.0414361,2.14286964 Z M12.8571752,2.85716867 C12.8571752,2.06820442 13.4967684,1.42861228 14.2857327,1.42861228 C15.074697,1.42861228 15.714289,2.06820442 15.714289,2.85716867 C15.714289,3.64613293 15.074697,4.28572523 14.2857327,4.28572523 C13.4967684,4.28572523 12.8571752,3.64613293 12.8571752,2.85716867 Z" />
            <path d="M15.6128377,16.4286365 C15.2254914,14.9067064 13.6776973,13.9869526 12.1557256,14.374299 C11.1464072,14.6311906 10.3582796,15.4193177 10.1013881,16.4286365 L0.714299137,16.4286365 C0.319796082,16.4286365 0,16.7484331 0,17.1428944 C0,17.5373558 0.319796082,17.8571932 0.714299137,17.8571932 L10.1014296,17.8571932 C10.4887758,19.3791233 12.0365713,20.2988787 13.5585429,19.9115324 C14.5678614,19.6546407 15.3559883,18.866512 15.6128799,17.8571932 L19.2857001,17.8571932 C19.6802032,17.8571932 20,17.5373976 20,17.1428944 C20,16.7483912 19.6802032,16.4286365 19.2857001,16.4286365 L15.6128377,16.4286365 Z M11.4285767,17.1429366 C11.4285767,16.353972 12.06817,15.7143786 12.8571343,15.7143786 C13.6460986,15.7143786 14.2856906,16.353972 14.2856906,17.1429366 C14.2856906,17.9319011 13.6461404,18.5714933 12.8571343,18.5714933 C12.06817,18.5714933 11.4285767,17.9319011 11.4285767,17.1429366 Z" />
        </g>
    </g>
</svg>