<svg width="41" height="41" viewBox="0 0 41 41" fill="currentColor" xmlns="http://www.w3.org/2000/svg">
    <path d="M39.8987 17.833C39.8977 17.8321 39.8968 17.8311 39.8958 17.8302L23.1694 1.10608C22.4564 0.392883 21.5085 0 20.5003 0C19.492 0 18.5441 0.39257 17.8308 1.10577L1.11312 17.8214C1.10749 17.8271 1.10185 17.833 1.09622 17.8387C-0.367854 19.311 -0.365352 21.6999 1.10342 23.1685C1.77445 23.8398 2.66072 24.2286 3.6083 24.2693C3.64678 24.2731 3.68558 24.2749 3.72468 24.2749H4.39134V36.5829C4.39134 39.0184 6.37316 41 8.80953 41H15.3535C16.0167 41 16.5548 40.4623 16.5548 39.7988V30.1494C16.5548 29.038 17.4589 28.134 18.5704 28.134H22.4301C23.5417 28.134 24.4458 29.038 24.4458 30.1494V39.7988C24.4458 40.4623 24.9835 41 25.6471 41H32.191C34.6274 41 36.6092 39.0184 36.6092 36.5829V24.2749H37.2273C38.2353 24.2749 39.1832 23.8824 39.8968 23.1692C41.3671 21.698 41.3677 19.3051 39.8987 17.833Z"/>
</svg>
