<svg fill="currentColor" width="16" height="16" viewBox="0 0 16 16" version="1.1" xmlns="http://www.w3.org/2000/svg">
    <g transform="translate(-284.000000, -738.000000)">
        <g transform="translate(16.000000, 729.000000)">
            <g transform="translate(237.000000, 9.000000)">
                <g transform="translate(31.000000, 0.000000)">
                    <path d="M13.9554687,0 L2.04453125,0 C0.91715625,0 0,0.9171875 0,2.0445625 L0,13.9554687 C0,15.0828125 0.91715625,16 2.04453125,16 L13.9554687,16 C15.0828438,16 16,15.0828125 16,13.9554375 L16,2.0445625 C16,0.9171875 15.0828438,0 13.9554687,0 Z M15.0575938,13.9554688 C15.0575938,14.5631875 14.5631563,15.0575625 13.9554688,15.0575625 L2.04453125,15.0575625 C1.4368125,15.0575625 0.94240625,14.5631563 0.94240625,13.9554688 L0.94240625,12.2365 L4.044125,9.59740625 C4.1573125,9.50109375 4.3224375,9.5001875 4.4366875,9.5950625 L6.379625,11.2084375 C6.56696875,11.3639688 6.84196875,11.3512188 7.014125,11.178875 L11.6306563,6.5553125 C11.7140938,6.47171875 11.811375,6.46359375 11.8621563,6.4661875 C11.9127813,6.46878125 12.008875,6.48684375 12.0833438,6.5785625 L15.0575938,10.24075 L15.0575938,13.9554688 L15.0575938,13.9554688 Z M15.0575625,8.74578125 L12.814875,5.98434375 C12.5924688,5.71046875 12.2628125,5.54303125 11.9104375,5.5249375 C11.5583125,5.507125 11.2130313,5.6396875 10.96375,5.889375 L6.651,10.2087812 L5.0388125,8.8700625 C4.57134375,8.481875 3.89621875,8.48590625 3.43340625,8.8796875 L0.94240625,10.999125 L0.94240625,2.0445625 C0.94240625,1.43684375 1.4368125,0.9424375 2.04453125,0.9424375 L13.9554688,0.9424375 C14.5631875,0.9424375 15.0575625,1.43684375 15.0575625,2.0445625 L15.0575625,8.74578125 Z" />
                    <path d="M5.0366875,1.96859375 C3.78371875,1.96859375 2.76440625,2.98796875 2.76440625,4.240875 C2.76440625,5.4938125 3.78375,6.51315625 5.0366875,6.51315625 C6.289625,6.51315625 7.30896875,5.4938125 7.30896875,4.240875 C7.30896875,2.9879375 6.28965625,1.96859375 5.0366875,1.96859375 Z M5.0366875,5.57075 C4.303375,5.57075 3.7068125,4.97415625 3.7068125,4.240875 C3.7068125,3.5075625 4.303375,2.911 5.0366875,2.911 C5.77,2.911 6.3665625,3.50759375 6.3665625,4.240875 C6.3665625,4.97415625 5.77,5.57075 5.0366875,5.57075 Z" />
                </g>
            </g>
        </g>
    </g>
</svg>