<?xml version="1.0" encoding="UTF-8"?>
<svg width="121px" height="121px" viewBox="0 0 121 121" version="1.1" xmlns="http://www.w3.org/2000/svg" xmlns:xlink="http://www.w3.org/1999/xlink">
    <title>Logo</title>
    <defs>
        <linearGradient x1="0%" y1="50%" x2="100%" y2="50%" id="linearGradient-1">
            <stop stop-color="#4776E6" offset="0%"></stop>
            <stop stop-color="#8E54E9" offset="100%"></stop>
        </linearGradient>
    </defs>
    <g id="App" stroke="none" stroke-width="1" fill="none" fill-rule="evenodd">
        <g id="Login" transform="translate(-126.000000, -101.000000)" fill-rule="nonzero">
            <g id="Logo" transform="translate(126.000000, 101.000000)">
                <path d="M19.1052632,121 C8.55491273,121 0,112.445087 0,101.894737 L0,19.1052632 C0,8.55491273 8.55491273,0 19.1052632,0 L101.894737,0 C112.445087,0 121,8.55491273 121,19.1052632 L121,101.894737 C121,112.445087 112.445087,121 101.894737,121 L19.1052632,121 Z" id="Vector" fill="url(#linearGradient-1)"></path>
                <g id="Group" transform="translate(14.431193, 22.201835)" fill="#FFFFFF">
                    <path d="M85.804319,12.3678826 C85.7943208,5.53905136 80.2652591,0 73.4364281,0 C66.6075972,0 61.0685523,5.53905136 61.0685523,12.3578844 C61.0685523,15.6373232 62.3583274,18.6068149 64.4379713,20.8264351 C61.8184199,29.0350304 56.9692545,40.6130512 48.0207864,54.2307208 C47.450884,54.1507345 46.8809794,54.090743 46.2910804,54.090743 C45.0712892,54.090743 43.9014906,54.2707107 42.7916806,54.6006542 C37.5525777,46.2620812 30.5237811,33.6642398 26.2545118,20.2765309 C28.0442054,18.1268986 29.1340186,15.3673693 29.1340186,12.3578844 C29.1340186,5.53905136 23.6049657,0 16.7761347,0 C9.94730367,0 4.40825128,5.53905136 4.40825128,12.3578844 C4.40825128,19.116728 9.83732245,24.6057889 16.5761687,24.7057718 C21.9752445,31.7445673 29.2739926,43.2725919 35.6129076,60.2496862 C34.5530891,62.079373 33.9331965,64.1890178 33.9331965,66.4586294 C33.9331965,73.2874606 39.4722477,78.8165138 46.2910804,78.8165138 C53.1099132,78.8165138 58.6489668,73.2774624 58.6489668,66.4586294 C58.6489668,63.4391462 57.559155,60.6696149 55.7594631,58.5199827 C59.4288351,49.4315376 65.5877753,36.1538143 74.0663232,24.6957748 C80.5952059,24.3658313 85.804319,18.9767515 85.804319,12.3678826 Z" id="Vector"></path>
                    <path d="M77.2757816,47.2617842 C74.1429845,45.4554267 71.8733737,43.4990952 70.4669492,41.3927898 C68.0806909,43.0791678 66.5409535,45.3054535 65.8477369,48.071647 C69.2171602,49.3714245 71.8067196,50.84117 73.7863808,52.2709252 C73.5664185,53.0507917 73.446435,53.8706521 73.446435,54.7205067 C73.446435,59.7896393 77.555732,63.8989361 82.6248647,63.8989361 C87.6939974,63.8989361 91.8032943,59.7896393 91.8032943,54.7205067 C91.8032943,49.6513741 87.683997,45.5420773 82.6148642,45.5420773 C80.6252047,45.5420773 78.7755249,46.181969 77.2757816,47.2617842 Z" id="Vector"></path>
                    <path d="M13.4466195,47.7216532 C12.4667871,47.2017422 11.3769738,46.851802 10.207174,46.7218243 C5.16803624,46.1519218 0.62881288,49.7813031 0.0589104005,54.8204409 C-0.510992079,59.8595787 3.11838676,64.3988036 8.1575245,64.968706 C13.1966622,65.5386085 17.7358852,61.9092272 18.3057877,56.8700894 C18.4957552,55.2203717 18.215804,53.6206434 17.5959101,52.2008864 C20.1821343,49.8812832 22.6383803,48.3782076 24.9646482,47.6916596 C24.0648021,44.9054697 22.4017534,42.7691686 19.9755021,41.2827563 C17.6758956,44.1822603 15.436279,46.2419064 13.4466195,47.7216532 Z" id="Vector"></path>
                </g>
            </g>
        </g>
    </g>
</svg>