<svg width="51" height="44" viewBox="0 0 51 44" fill="currentColor" xmlns="http://www.w3.org/2000/svg">
    <g clip-path="url(#clip0)">
        <path d="M41.1513 13.7849C44.7787 13.6007 47.6728 10.5926 47.6728 6.9036C47.6673 3.09183 44.5954 0 40.8013 0C37.0073 0 33.9299 3.09183 33.9299 6.89802C33.9299 8.72856 34.6464 10.3861 35.8019 11.6251C34.3465 16.207 31.6523 22.6697 26.6806 30.2709C26.364 30.2263 26.0474 30.1928 25.7196 30.1928C25.0419 30.1928 24.392 30.2933 23.7754 30.4774C20.8646 25.8229 16.9595 18.791 14.5875 11.3181C15.5819 10.1182 16.1873 8.57788 16.1873 6.89802C16.1873 3.09183 13.1155 0 9.32143 0C5.52739 0 2.44995 3.09183 2.44995 6.89802C2.44995 10.6707 5.46629 13.7347 9.21033 13.7905C12.21 17.7194 16.2651 24.1542 19.787 33.6306C19.1981 34.652 18.8537 35.8295 18.8537 37.0964C18.8537 40.9082 21.9312 43.9944 25.7196 43.9944C29.5081 43.9944 32.5856 40.9026 32.5856 37.0964C32.5856 35.411 31.9801 33.865 30.9802 32.6651C33.0188 27.5921 36.4407 20.1806 41.1513 13.7849Z"/>
        <path d="M45.9006 25.4211C44.7952 25.4211 43.7675 25.7783 42.9343 26.381C40.3234 24.8686 39.1513 23.105 39.1513 23.105C37.1627 24.517 36.585 26.8331 36.585 26.8331C38.457 27.5586 39.8957 28.379 40.9956 29.1771C40.8734 29.6124 40.8067 30.07 40.8067 30.5444C40.8067 33.3739 43.0898 35.6677 45.9062 35.6677C48.7225 35.6677 51.0056 33.3739 51.0056 30.5444C51.0056 27.7149 48.717 25.4211 45.9006 25.4211Z"/>
        <path d="M11.0989 23.0436C9.82129 24.6621 8.57698 25.8118 7.47154 26.6378C6.92716 26.3475 6.32167 26.1522 5.67174 26.0797C2.87204 25.7615 0.350095 27.7874 0.0334625 30.6002C-0.28317 33.413 1.73328 35.9467 4.53297 36.2648C7.33267 36.583 9.85462 34.5571 10.1712 31.7443C10.2768 30.8234 10.1213 29.9305 9.77685 29.138C11.9322 27.1958 13.8708 26.621 13.8708 26.621C13.1209 24.2882 11.0989 23.0436 11.0989 23.0436Z"/>
    </g>
    <defs>
        <clipPath id="clip0">
            <rect width="51" height="44" fill="white"/>
        </clipPath>
    </defs>
</svg>
