<svg fill="currentColor" width="11.3" height="18" viewBox="0 0 11.3 18" version="1.1" xmlns="http://www.w3.org/2000/svg" >
    <g transform="translate(-336.000000, -737.000000)">
        <g transform="translate(16.000000, 729.000000)">
            <g transform="translate(309.000000, 0.000000)">
                <g transform="translate(11.000000, 8.000000)">
                    <path d="M5.66015625,0 C3.92146875,0 2.50688672,1.41458203 2.50688672,3.15326953 L2.50688672,9.35057813 C2.50688672,11.0890547 3.92146875,12.5036367 5.66015625,12.5036367 C7.39884375,12.5036367 8.81342578,11.0988984 8.81342578,9.37223437 L8.81342578,3.15326953 C8.81342578,1.41458203 7.39884375,0 5.66015625,0 Z M7.49935551,9.37205859 C7.49935551,10.3741172 6.67423828,11.1895664 5.66015625,11.1895664 C4.64607422,11.1895664 3.82074609,10.3646602 3.82074609,9.35036719 L3.82074609,3.15326953 C3.82074609,2.13897656 4.64586328,1.31385937 5.66015625,1.31385937 C6.67444922,1.31385937 7.49956641,2.13897656 7.49935551,3.15326953 L7.49935551,9.37205859 Z" />
                    <rect x="5.00322656" y="14.3868516" width="1.31385937" height="2.95621875" />
                    <path d="M7.39008984,16.6861406 L3.93022266,16.6861406 C3.567375,16.6861406 3.27329297,16.9802227 3.27329297,17.3430703 C3.27329297,17.705918 3.567375,18 3.93022266,18 L7.39008984,18 C7.7529375,18 8.04701953,17.705918 8.04701953,17.3430703 C8.04701953,16.9802227 7.7529375,16.6861406 7.39008984,16.6861406 Z" />
                    <path d="M10.6309688,8.25546094 C10.2681211,8.25546094 9.97403906,8.54954297 9.97403906,8.91239063 L9.97403906,9.43794141 C9.97403906,11.8164727 8.03872266,13.7518242 5.66015625,13.7518242 C3.28141406,13.7518242 1.34627344,11.8165078 1.34627344,9.43794141 L1.34627344,8.91239063 C1.34627344,8.54954297 1.05219141,8.25546094 0.68934375,8.25546094 C0.326496094,8.25546094 0.0324140625,8.54954297 0.0324140625,8.91239063 L0.0324140625,9.43794141 C0.0324140625,12.5410781 2.55701953,15.0656836 5.66015625,15.0656836 C8.76329297,15.0656836 11.2878984,12.5410781 11.2878984,9.43794141 L11.2878984,8.91239063 C11.2878984,8.54957813 10.9938164,8.25546094 10.6309688,8.25546094 Z" />
                </g>
            </g>
        </g>
    </g>
</svg>