<svg width="90" height="22.5" viewBox="0 0 90 22.5" fill="currentColor" xmlns="http://www.w3.org/2000/svg">
    <path d="M86.705 19.205C91.0984 14.8116 91.0984 7.68842 86.705 3.29502C82.3116 -1.09837 75.1884 -1.09837 70.795 3.29502C66.4017 7.68842 66.4017 14.8116 70.795 19.205C75.1884 23.5983 82.3116 23.5983 86.705 19.205Z" />
    <path d="M52.955 19.205C57.3484 14.8116 57.3484 7.68842 52.955 3.29502C48.5616 -1.09837 41.4384 -1.09837 37.045 3.29502C32.6517 7.68842 32.6517 14.8116 37.045 19.205C41.4384 23.5983 48.5616 23.5983 52.955 19.205Z" />
    <path d="M19.205 19.205C23.5984 14.8116 23.5984 7.68842 19.205 3.29502C14.8116 -1.09837 7.68844 -1.09837 3.29505 3.29502C-1.09835 7.68842 -1.09835 14.8116 3.29505 19.205C7.68844 23.5983 14.8116 23.5983 19.205 19.205Z" />
</svg>
