<?xml version="1.0" encoding="UTF-8"?>
<svg width="30px" height="30px" viewBox="0 0 30 30" version="1.1" xmlns="http://www.w3.org/2000/svg" xmlns:xlink="http://www.w3.org/1999/xlink">
    <title>Group 4</title>
    <g id="App" stroke="none" stroke-width="1" fill="none" fill-rule="evenodd">
        <g id="Profile-creation" transform="translate(-213.000000, -225.000000)">
            <g id="Group-4" transform="translate(213.101562, 225.218750)">
                <path d="M14.125,28.25 C21.9260221,28.25 28.25,21.9260221 28.25,14.125 C28.25,6.32397791 21.9260221,0 14.125,0 C6.32397791,0 0,6.32397791 0,14.125 C0,21.9260221 6.32397791,28.25 14.125,28.25 Z" id="Ellipse-1" fill="#FFFFFF"></path>
                <path d="M14.6609967,13.5890033 L14.6609967,7.80027554 C14.6609967,7.50424645 14.4210324,7.26428223 14.1250033,7.26428223 C13.8289742,7.26428223 13.58901,7.50424645 13.58901,7.80027554 L13.58901,13.5890033 L7.80028222,13.5890033 C7.50425312,13.5890033 7.2642889,13.8289676 7.2642889,14.1249967 C7.2642889,14.4210258 7.50425312,14.66099 7.80028222,14.66099 L13.58901,14.66099 L13.58901,20.4497178 C13.58901,20.7457469 13.8289742,20.9857111 14.1250033,20.9857111 C14.4210324,20.9857111 14.6609967,20.7457469 14.6609967,20.4497178 L14.6609967,14.66099 L20.4497245,14.66099 C20.7457536,14.66099 20.9857178,14.4210258 20.9857178,14.1249967 C20.9857178,13.8289676 20.7457536,13.5890033 20.4497245,13.5890033 L14.6609967,13.5890033 Z" id="Vector" fill="#666666" fill-rule="nonzero" transform="translate(14.125003, 14.124997) scale(1, -1) rotate(-180.000000) translate(-14.125003, -14.124997) "></path>
            </g>
        </g>
    </g>
</svg>