<svg width="60" height="72" viewBox="0 0 60 72" fill="currentColor" xmlns="http://www.w3.org/2000/svg">
    <path d="M29.6808 34.4681C34.5036 34.4681 38.6798 32.7697 42.092 29.4189C45.5042 26.0686 47.2339 21.9693 47.2339 17.2335C47.2339 12.4993 45.5042 8.39948 42.0914 5.04809C38.6786 1.69835 34.503 0 29.6808 0C24.8574 0 20.6823 1.69835 17.2701 5.04864C13.8579 8.39893 12.1276 12.4988 12.1276 17.2335C12.1276 21.9693 13.8579 26.0692 17.2706 29.4195C20.6834 32.7692 24.859 34.4681 29.6808 34.4681Z"/>
    <path d="M59.8546 55.5811C59.7575 54.1857 59.5611 52.6636 59.2719 51.0562C58.98 49.4368 58.6042 47.9059 58.1543 46.5066C57.6895 45.0604 57.0574 43.6323 56.2761 42.2636C55.4652 40.8431 54.5127 39.6061 53.4439 38.5883C52.3262 37.5234 50.9578 36.6673 49.3754 36.0428C47.7985 35.4216 46.051 35.1069 44.1816 35.1069C43.4475 35.1069 42.7375 35.4068 41.3664 36.2957C40.5225 36.8437 39.5355 37.4775 38.4337 38.1785C37.4916 38.7762 36.2154 39.3362 34.6391 39.8433C33.1011 40.3388 31.5396 40.5901 29.9984 40.5901C28.4571 40.5901 26.8961 40.3388 25.3565 39.8433C23.7818 39.3368 22.5056 38.7768 21.5646 38.179C20.4733 37.4846 19.4857 36.8508 18.6292 36.2952C17.2597 35.4063 16.5492 35.1063 15.8151 35.1063C13.9452 35.1063 12.1982 35.4216 10.6218 36.0433C9.04055 36.6667 7.6716 37.5229 6.55285 38.5888C5.48457 39.6072 4.53152 40.8436 3.72167 42.2636C2.94091 43.6323 2.30883 45.0599 1.84355 46.5072C1.39419 47.9064 1.01834 49.4368 0.726448 51.0562C0.437295 52.6614 0.240869 54.1841 0.143753 55.5828C0.0482836 56.953 0 58.3752 0 59.8116C0 63.5498 1.19337 66.576 3.54665 68.8079C5.87084 71.0103 8.94617 72.1276 12.686 72.1276H47.314C51.0538 72.1276 54.1281 71.0108 56.4528 68.8079C58.8066 66.5777 60 63.5509 60 59.811C59.9995 58.3681 59.9506 56.9448 59.8546 55.5811Z"/>
</svg>
