<svg fill="currentColor" width="16" height="16" viewBox="0 0 16 16" version="1.1" xmlns="http://www.w3.org/2000/svg">
    <g transform="translate(-26.000000, -738.000000)">
        <g transform="translate(16.000000, 729.000000)">
            <g transform="translate(10.000000, 9.000000)">
                <path d="M8,3.80952381 C5.68686437,3.80952381 3.80952381,5.68687317 3.80952381,8.00001964 C3.80952381,10.3131661 5.68686437,12.1904762 8,12.1904762 C10.3131356,12.1904762 12.1904762,10.3131268 12.1904762,7.99998036 C12.1904762,5.68683389 10.3131356,3.80952381 8,3.80952381 Z" />
                <path d="M7.99998125,0 C3.5800097,0 0,3.58001809 0,8 C0,12.4199819 3.5800097,16 7.99998125,16 C12.4199528,16 16,12.4200194 16,8 C16,3.57998059 12.4199903,0 7.99998125,0 Z M7.99998125,14.4000225 C4.46399651,14.4000225 1.59997375,11.5360305 1.59997375,8 C1.59997375,4.46396947 4.46399651,1.600015 7.99998125,1.600015 C11.535966,1.600015 14.3999888,4.46400698 14.3999888,8 C14.3999888,11.535993 11.5360035,14.4000225 7.99998125,14.4000225 Z" />
            </g>
        </g>
    </g>
</svg>