<svg width="12.33" height="16" viewBox="0 0 12.33 16" version="1.1" xmlns="http://www.w3.org/2000/svg">
    <g transform="translate(-336.000000, -738.000000)">
        <g transform="translate(16.000000, 729.000000)">
            <g transform="translate(309.000000, 0.000000)">
                <g transform="translate(11.000000, 9.000000)">
                    <path d="M1.57030175,7.00538778 L5.05960376,3.53299463 C5.44894506,3.14549343 5.45043676,2.51575423 5.0629355,2.12641298 C4.67543425,1.73702201 4.04564531,1.73558016 3.65630401,2.12303165 L-1.54074857,7.29501902 L-1.54164372,7.29596389 C-1.92999041,7.68346509 -1.93123368,8.31524309 -1.5417432,8.70403729 L-1.54084803,8.70498137 L3.65620443,13.8769687 C4.04549601,14.2643704 4.67528492,14.2630283 5.06283592,13.8735876 C5.45033717,13.4842463 5.44884548,12.8545072 5.05950418,12.467006 L1.57030175,8.99461301 L13.1720039,8.99461301 C13.7213287,8.99461301 14.1666174,8.5493251 14.1666174,8.00000039 C14.1666174,7.45067569 13.7213287,7.00538778 13.1720039,7.00538778 L1.57030175,7.00538778 Z" id="Vector" transform="translate(6.166617, 8.000000) scale(-1, -1) rotate(-90.000000) translate(-6.166617, -8.000000)" />
                </g>
            </g>
        </g>
    </g>
</svg>