<svg width="14" height="14" viewBox="0 0 14 14" version="1.1" xmlns="http://www.w3.org/2000/svg">
    <g transform="translate(-74.000000, -496.000000)">
        <g transform="translate(16.000000, 104.000000)">
            <g transform="translate(0.000000, 304.000000)">
                <g transform="translate(44.000000, 77.000000)">
                    <path d="M27.2298771,11.7701229 C26.7166214,11.2567396 26.0982373,11 25.3752035,11 L16.62502,11 C15.9019862,11 15.283602,11.2567396 14.7701229,11.7701229 C14.2567396,12.283602 14,12.9019543 14,13.62502 L14,22.3751077 C14,23.0981096 14.2567396,23.7165257 14.7701229,24.2300048 C15.283602,24.7434839 15.9019862,25.0002235 16.62502,25.0002235 L25.3751077,25.0002235 C26.0981415,25.0002235 26.7165257,24.7434839 27.2297813,24.2300048 C27.7432604,23.7165257 28,23.0981415 28,22.3751077 L28,13.62502 C28,12.9019543 27.7432285,12.2835063 27.2298771,11.7701229 Z" />
                </g>
            </g>
        </g>
    </g>
</svg>