<svg width="266" height="51" viewBox="0 0 266 51" version="1.1" xmlns="http://www.w3.org/2000/svg" xmlns:xlink="http://www.w3.org/1999/xlink">
    <defs>
        <linearGradient x1="0%" y1="50.0029567%" x2="99.9977232%" y2="50.0029567%" id="linearGradient-1">
            <stop stop-color="#4776E6" offset="0%" />
            <stop stop-color="#8E54E9" offset="100%" />
        </linearGradient>
        <path d="M64.4368066,359 L64.4368066,338.26 C64.4368066,336.764 64.8108066,335.404 65.5588066,334.18 C66.3068066,332.956 67.30414,331.981333 68.5508066,331.256 C69.7974733,330.530667 71.1914733,330.168 72.7328066,330.168 C74.27414,330.168 75.66814,330.530667 76.9148066,331.256 C78.1614733,331.981333 79.17014,332.956 79.9408066,334.18 C80.7114733,335.404 81.0968066,336.764 81.0968066,338.26 L81.0968066,338.26 L81.0968066,359 L88.8488066,359 L88.8488066,338.26 C88.8488066,336.764 89.2228066,335.404 89.9708066,334.18 C90.7188066,332.956 91.7274733,331.981333 92.9968066,331.256 C94.26614,330.530667 95.6714733,330.168 97.2128066,330.168 C98.7994733,330.168 100.204807,330.530667 101.428807,331.256 C102.652807,331.981333 103.638807,332.956 104.386807,334.18 C105.134807,335.404 105.508807,336.764 105.508807,338.26 L105.508807,338.26 L105.508807,359 L113.260807,359 L113.260807,338.26 C113.260807,335.585333 112.62614,333.126 111.356807,330.882 C110.087473,328.638 108.262807,326.847333 105.882807,325.51 C103.502807,324.172667 100.612807,323.504 97.2128066,323.504 C95.5808066,323.504 94.0054733,323.708 92.4868066,324.116 C90.96814,324.524 89.5628066,325.17 88.2708066,326.054 C86.9788066,326.938 85.8794733,328.037333 84.9728066,329.352 L84.9728066,329.352 L84.9048066,329.352 C83.99814,328.037333 82.8988066,326.938 81.6068066,326.054 C80.3148066,325.17 78.9208066,324.524 77.4248066,324.116 C75.9288066,323.708 74.3648066,323.504 72.7328066,323.504 C69.37814,323.504 66.4994733,324.172667 64.0968066,325.51 C61.69414,326.847333 59.85814,328.638 58.5888066,330.882 C57.3194733,333.126 56.6848066,335.585333 56.6848066,338.26 L56.6848066,338.26 L56.6848066,359 L64.4368066,359 Z M136.720811,359.816 C138.851477,359.816 140.710144,359.476 142.296811,358.796 C143.883477,358.116 145.220811,357.220667 146.308811,356.11 C147.396811,354.999333 148.280811,353.809333 148.960811,352.54 L148.960811,352.54 L149.096811,352.54 L149.096811,359 L156.916811,359 L156.916811,341.592 C156.916811,338.237333 156.202811,335.188667 154.774811,332.446 C153.346811,329.703333 151.306811,327.527333 148.654811,325.918 C146.002811,324.308667 142.795477,323.504 139.032811,323.504 C135.224811,323.504 131.949477,324.308667 129.206811,325.918 C126.464144,327.527333 124.356144,329.703333 122.882811,332.446 C121.409477,335.188667 120.672811,338.282667 120.672811,341.728 C120.672811,345.037333 121.318811,348.063333 122.610811,350.806 C123.902811,353.548667 125.750144,355.736 128.152811,357.368 C130.555477,359 133.411477,359.816 136.720811,359.816 Z M138.828811,353.152 C136.652811,353.152 134.805477,352.642 133.286811,351.622 C131.768144,350.602 130.600811,349.219333 129.784811,347.474 C128.968811,345.728667 128.560811,343.790667 128.560811,341.66 C128.560811,339.484 128.968811,337.534667 129.784811,335.812 C130.600811,334.089333 131.779477,332.718 133.320811,331.698 C134.862144,330.678 136.720811,330.168 138.896811,330.168 C140.982144,330.168 142.772811,330.678 144.268811,331.698 C145.764811,332.718 146.920811,334.078 147.736811,335.778 C148.552811,337.478 148.960811,339.416 148.960811,341.592 C149.006144,343.768 148.598144,345.728667 147.736811,347.474 C146.875477,349.219333 145.685477,350.602 144.166811,351.622 C142.648144,352.642 140.868811,353.152 138.828811,353.152 Z M186.891227,359 L186.891227,352.336 L179.615227,352.336 C178.57256,352.336 177.733893,352.007333 177.099227,351.35 C176.46456,350.692667 176.147227,349.842667 176.147227,348.8 L176.147227,348.8 L176.147,330.984 L186.959227,330.984 L186.959227,324.32 L176.147,324.32 L176.147227,315.616 L168.395227,315.616 L168.395,324.32 L162.411227,324.32 L162.411227,330.984 L168.395,330.984 L168.395227,349.14 C168.395227,352.050778 169.196686,354.378676 170.799605,356.123694 L171.013227,356.348 C172.75856,358.116 175.17256,359 178.255227,359 L178.255227,359 L186.891227,359 Z M215.233605,359 L215.233605,352.336 L210.881605,352.336 C208.796272,352.336 206.948938,351.871333 205.339605,350.942 C203.730272,350.012667 202.472272,348.732 201.565605,347.1 C200.658938,345.468 200.205605,343.654667 200.205605,341.66 C200.205605,339.665333 200.658938,337.852 201.565605,336.22 C202.472272,334.588 203.730272,333.307333 205.339605,332.378 C206.948938,331.448667 208.796272,330.984 210.881605,330.984 L210.881605,330.984 L215.233605,330.984 L215.233605,324.32 L211.017605,324.32 C207.436272,324.32 204.240272,325.090667 201.429605,326.632 C198.618938,328.173333 196.397605,330.247333 194.765605,332.854 C193.133605,335.460667 192.317605,338.396 192.317605,341.66 C192.317605,344.924 193.133605,347.859333 194.765605,350.466 C196.397605,353.072667 198.618938,355.146667 201.429605,356.688 C204.240272,358.229333 207.436272,359 211.017605,359 L211.017605,359 L215.233605,359 Z M229.853622,359 L229.853622,338.804 C229.853622,337.126667 230.261622,335.630667 231.077622,334.316 C231.893622,333.001333 232.981622,331.981333 234.341622,331.256 C235.701622,330.530667 237.152288,330.168 238.693622,330.168 C240.325622,330.168 241.810288,330.542 243.147622,331.29 C244.484955,332.038 245.572955,333.080667 246.411622,334.418 C247.250288,335.755333 247.669622,337.308 247.669622,339.076 L247.669622,339.076 L247.669622,359 L255.421622,359 L255.421622,339.008 C255.421622,336.016 254.832288,333.352667 253.653622,331.018 C252.474955,328.683333 250.763622,326.847333 248.519622,325.51 C246.275622,324.172667 243.566955,323.504 240.393622,323.504 C238.489622,323.504 236.608288,323.844 234.749622,324.524 C232.890955,325.204 231.258955,326.292 229.853622,327.788 L229.853622,327.788 L229.853622,309.36 L222.033622,309.36 L222.033622,359 L229.853622,359 Z M291.679227,359 L291.679227,352.336 L282.363227,352.336 C280.413893,352.336 278.645893,352.03 277.059227,351.418 C275.47256,350.806 274.157893,349.899333 273.115227,348.698 C272.07256,347.496667 271.415227,345.989333 271.143227,344.176 L271.143227,344.176 L295.759227,344.176 C295.849893,343.858667 295.917893,343.405333 295.963227,342.816 C296.00856,342.226667 296.031227,341.705333 296.031227,341.252 C296.031227,337.942667 295.453227,334.950667 294.297227,332.276 C293.141227,329.601333 291.361893,327.470667 288.959227,325.884 C286.55656,324.297333 283.49656,323.504 279.779227,323.504 C276.469893,323.504 273.545893,324.274667 271.007227,325.816 C268.46856,327.357333 266.473893,329.488 265.023227,332.208 C263.57256,334.928 262.847227,338.078667 262.847227,341.66 C262.847227,345.06 263.663227,348.063333 265.295227,350.67 C266.927227,353.276667 269.205227,355.316667 272.129227,356.79 C275.053227,358.263333 278.46456,359 282.363227,359 L282.363227,359 L291.679227,359 Z M288.211227,338.872 L271.075227,338.872 C271.211227,337.784 271.471893,336.707333 271.857227,335.642 C272.24256,334.576667 272.797893,333.624667 273.523227,332.786 C274.24856,331.947333 275.13256,331.267333 276.175227,330.746 C277.217893,330.224667 278.419227,329.964 279.779227,329.964 C280.957893,329.964 282.00056,330.134 282.907227,330.474 C283.813893,330.814 284.595893,331.267333 285.253227,331.834 C285.91056,332.400667 286.45456,333.069333 286.885227,333.84 C287.315893,334.610667 287.633227,335.426667 287.837227,336.288 C288.041227,337.149333 288.165893,338.010667 288.211227,338.872 L288.211227,338.872 Z M310.841642,359 L310.841642,334.52 C310.841642,333.432 311.147642,332.570667 311.759642,331.936 C312.371642,331.301333 313.221642,330.984 314.309642,330.984 L314.309642,330.984 L321.245642,330.984 L321.245642,324.32 L312.881642,324.32 C309.798976,324.32 307.384976,325.192667 305.639642,326.938 C303.894309,328.683333 303.021642,331.097333 303.021642,334.18 L303.021642,334.18 L303.021642,359 L310.841642,359 Z" id="path-2" />
    </defs>
    <g id="Login" transform="translate(-56.000000, -309.000000)">
        <g id="text-logo">
            <use fill="#4776E6" xlink:href="#path-2" />
            <use fill="url(#linearGradient-1)" xlink:href="#path-2" />
        </g>
    </g>
</svg>