<svg width="113" height="113" viewBox="0 0 113 113" version="1.1" xmlns="http://www.w3.org/2000/svg">
    <defs>
        <linearGradient x1="0%" y1="50.0029567%" x2="99.9977232%" y2="50.0029567%" id="linearGradient-1">
            <stop stop-color="#4776E6" offset="0%" />
            <stop stop-color="#8E54E9" offset="100%" />
        </linearGradient>
    </defs>
    <g transform="translate(-131.000000, -144.000000)">
        <g transform="translate(131.000000, 144.000000)">
            <path d="M56.5,0 C87.7040884,-5.73209804e-15 113,25.2959116 113,56.5 C113,87.7040884 87.7040884,113 56.5,113 C25.2959116,113 3.82139869e-15,87.7040884 0,56.5 C-3.82139869e-15,25.2959116 25.2959116,5.73209804e-15 56.5,0 Z" id="Rectangle-2" fill="url(#linearGradient-1)" />
            <g transform="translate(33.546875, 29.132812)" fill="#FFFFFF">
                <path d="M32.1171271,22.4472292 C34.7207248,19.8908884 36.040554,16.7630471 36.040554,13.1495135 C36.040554,9.53722947 34.7207248,6.40897155 32.1167029,3.85179774 C29.512681,1.29587355 26.3265936,0 22.6471081,0 C18.9667741,0 15.7811109,1.29587355 13.1775133,3.85221428 C10.5739156,6.40855501 9.25366211,9.53681293 9.25366211,13.1495135 C9.25366211,16.7630471 10.5739156,19.891305 13.1779375,22.4476457 C15.7819594,25.0035699 18.9680468,26.29986 22.6471081,26.29986 L22.6471081,26.29986 C26.3270178,26.29986 29.5135295,25.0039864 32.1171271,22.4472292 Z" id="Vector" />
                <path d="M45.225684,38.9569321 C45.0029613,37.7212908 44.7161848,36.5531844 44.3728905,35.4855469 C44.0182925,34.3820575 43.5360058,33.2923253 42.9398459,32.2480332 C42.3210786,31.1641372 41.5942994,30.2203139 40.7787659,29.4436609 C39.9259725,28.6311557 38.8818551,27.9779 37.6744638,27.5014028 C36.4712588,27.0274067 35.1378533,26.7872821 33.7115071,26.7872821 C33.1513511,26.7872821 32.6096159,27.016151 31.5634054,27.6944196 C30.9195192,28.1125534 30.1663647,28.5961376 29.3257122,29.1309986 C28.6068873,29.5870687 27.6331035,30.0143738 26.4303172,30.4012413 C25.2568366,30.7793541 24.0653541,30.9711204 22.8893614,30.9711204 C21.7133689,30.9711204 20.5223048,30.7793541 19.3475683,30.4012413 C18.1460379,30.0147907 17.1722541,29.5874856 16.4542666,29.1314155 C15.6215683,28.6015571 14.8679954,28.1179728 14.2144802,27.6940027 C13.1695256,27.0157341 12.6273716,26.7868652 12.0672157,26.7868652 C10.6404508,26.7868652 9.30746393,27.0274067 8.10467768,27.5018197 C6.89812347,27.9774832 5.8535877,28.6307389 4.9999569,29.4440778 C4.18484204,30.2211478 3.45764414,31.1645542 2.83971428,32.2480332 C2.2439729,33.2923253 1.76168623,34.3816406 1.40666961,35.4859638 C1.06379387,36.5536013 0.7770175,37.7212908 0.554294811,38.9569321 C0.333665356,40.1817346 0.183788109,41.3435875 0.109686789,42.4108081 C0.036841347,43.4563508 0,44.5414974 0,45.6374829 C0,48.4897967 0.910567383,50.798912 2.7061644,52.5018792 C4.47957287,54.1823348 6.82611548,55.0348606 9.67964527,55.0348606 L36.1015895,55.0348606 C38.9551193,55.0348606 41.3008246,54.1827517 43.0746517,52.5018792 C44.8706674,50.8001627 45.7812347,48.4906305 45.7812347,45.637066 C45.7812347,44.5360779 45.7435561,43.4500976 45.670292,42.4095575 C45.5961907,41.3448381 45.4463133,40.1834021 45.225684,38.9569321 Z" id="Vector" />
            </g>
        </g>
    </g>
</svg>