<?xml version="1.0" encoding="UTF-8"?>
<svg width="512px" height="512px" viewBox="0 0 512 512" version="1.1" xmlns="http://www.w3.org/2000/svg" xmlns:xlink="http://www.w3.org/1999/xlink">
    <title>Group 2</title>
    <defs>
        <linearGradient x1="0%" y1="50.0029567%" x2="99.9977232%" y2="50.0029567%" id="linearGradient-1">
            <stop stop-color="#4776E6" offset="0%"></stop>
            <stop stop-color="#8E54E9" offset="100%"></stop>
        </linearGradient>
    </defs>
    <g id="Page-1" stroke="none" stroke-width="1" fill="none" fill-rule="evenodd">
        <g id="Group-2">
            <path d="M512,365.858544 C512,416.675112 506.70894,435.102427 496.773436,453.680205 C486.837932,472.257983 472.257983,486.837932 453.680205,496.773436 C435.102427,506.70894 416.675112,512 365.858544,512 L365.858544,512 L146.141456,512 L144.626644,511.998413 C94.9563269,511.893714 76.7117949,506.609585 58.3197949,496.773436 C39.7420171,486.837932 25.1620684,472.257983 15.2265641,453.680205 C5.29105984,435.102427 2.28704159e-15,416.675112 -3.93619317e-15,365.858544 L-3.93619317e-15,365.858544 L3.93619317e-15,146.141456 L0.00158667134,144.626644 C0.106285641,94.9563269 5.39041488,76.7117949 15.2265641,58.3197949 C25.1620684,39.7420171 39.7420171,25.1620684 58.3197949,15.2265641 C76.8975727,5.29105984 95.3248882,3.43056238e-15 146.141456,-5.90428975e-15 L146.141456,-5.90428975e-15 L365.858544,5.90428975e-15 L367.373356,0.00158667134 C417.043673,0.106285641 435.288205,5.39041488 453.680205,15.2265641 C472.257983,25.1620684 486.837932,39.7420171 496.773436,58.3197949 C506.70894,76.8975727 512,95.3248882 512,146.141456 L512,146.141456 Z" id="Combined-Shape" fill="url(#linearGradient-1)"></path>
            <g id="Group" transform="translate(65.000000, 92.000000)" fill="#FFFFFF" fill-rule="nonzero">
                <path d="M357,51.4697404 C356.958359,23.0511191 333.930811,0 305.489956,0 C277.049102,0 253.979975,23.0511191 253.979975,51.4281321 C253.979975,65.0757281 259.351657,77.4334589 268.013,86.6705514 C257.103039,120.83115 236.907136,169.013829 199.638374,225.684638 C197.264833,225.35177 194.891283,225.102112 192.434459,225.102112 C187.354248,225.102112 182.482247,225.851059 177.860088,227.22414 C156.040166,192.522632 126.76649,140.095903 108.98575,84.3820896 C116.439503,75.4362565 120.978379,63.9522974 120.978379,51.4281321 C120.978379,23.0511191 97.9508668,0 69.5100125,0 C41.0691581,0 18,23.0511191 18,51.4281321 C18,79.5554953 40.6111061,102.398576 68.6771902,102.814661 C91.1633712,132.107062 121.561346,180.081679 147.961788,250.732951 C143.547834,258.34731 140.966093,267.126733 140.966093,276.571868 C140.966093,304.990489 164.035246,328 192.434459,328 C220.833673,328 243.902836,304.948881 243.902836,276.571868 C243.902836,264.006094 239.363966,252.480511 231.868572,243.534678 C247.150848,205.712528 272.801727,150.456427 308.113356,102.773058 C335.30498,101.399977 357,78.9729739 357,51.4697404 Z" id="Vector"></path>
                <path d="M321.551621,196.512658 C308.516182,188.968159 299.072425,180.797273 293.220351,172 C283.291229,179.043389 276.884446,188.341776 274,199.895161 C288.020031,205.32386 298.79508,211.462453 307.032369,217.434021 C306.117115,220.69124 305.617868,224.1155 305.617868,227.665034 C305.617868,248.83696 322.716483,266 343.808934,266 C364.901386,266 382,248.83696 382,227.665034 C382,206.493108 364.859774,189.330067 343.767323,189.330067 C335.488432,189.330067 327.791991,192.002662 321.551621,196.512658 Z" id="Vector"></path>
                <path d="M55.4785229,198.845844 C51.435897,196.678167 46.9395079,195.219153 42.1131078,194.677234 C21.3224608,192.301126 2.59437771,207.433191 0.243054547,228.442986 C-2.10826861,249.452781 12.8659468,268.378278 33.6565938,270.754386 C54.4472408,273.130494 73.1753223,257.998429 75.5266455,236.988634 C76.3104199,230.110427 75.1553877,223.440642 72.5978081,217.521216 C83.2681405,207.85004 93.4022045,201.583232 103,198.720791 C99.2873844,187.104264 92.4259211,178.197334 82.4156102,172 C72.9278151,184.08897 63.6875284,192.676301 55.4785229,198.845844 Z" id="Vector"></path>
            </g>
        </g>
    </g>
</svg>