<?xml version="1.0" encoding="UTF-8"?>
<svg width="30px" height="30px" viewBox="0 0 30 30" version="1.1" xmlns="http://www.w3.org/2000/svg" xmlns:xlink="http://www.w3.org/1999/xlink">
    <title>facebook</title>
    <g id="App" stroke="none" stroke-width="1" fill="none" fill-rule="evenodd">
        <g id="Login" transform="translate(-50.000000, -702.000000)" fill="#475993" fill-rule="nonzero">
            <g id="facebook" transform="translate(50.000000, 702.000000)">
                <path d="M25.9438386,0 L4.04061125,0 C1.8091687,0 0.000146699267,1.80894866 0.000146699267,4.04046455 L0.000146699267,25.9438386 C0.000146699267,28.1753545 1.80909535,29.9844499 4.04061125,29.9844499 L14.8431785,29.9844499 L14.8615892,19.2695355 L12.0778973,19.2695355 C11.7161369,19.2695355 11.4225183,18.9770171 11.4211247,18.6152567 L11.4077751,15.1614425 C11.4063814,14.7977017 11.7008802,14.5021027 12.064621,14.5021027 L14.8432518,14.5021027 L14.8432518,11.1648411 C14.8432518,7.29198044 17.2085575,5.18317848 20.6633985,5.18317848 L23.4983619,5.18317848 C23.8610758,5.18317848 24.1552078,5.47723716 24.1552078,5.84002445 L24.1552078,8.75229829 C24.1552078,9.11493888 23.8612958,9.40892421 23.4987286,9.40914425 L21.7589487,9.4099511 C19.8800978,9.4099511 19.5162836,10.3027628 19.5162836,11.6130073 L19.5162836,14.502176 L23.6447677,14.502176 C24.0381418,14.502176 24.3433496,14.8456724 24.2969927,15.2363325 L23.8876284,18.6901467 C23.8484597,19.0206601 23.5681907,19.2696822 23.2354034,19.2696822 L19.5346944,19.2696822 L19.5162836,29.9844499 L25.9439853,29.9844499 C28.1754279,29.9844499 29.9843765,28.1755012 29.9843765,25.9440587 L29.9843765,4.04046455 C29.9843765,1.80894866 28.1753545,0 25.9438386,0 Z" id="Path"></path>
            </g>
        </g>
    </g>
</svg>