<?xml version="1.0" encoding="UTF-8"?>
<svg width="25px" height="25px" viewBox="0 0 25 25" version="1.1" xmlns="http://www.w3.org/2000/svg" xmlns:xlink="http://www.w3.org/1999/xlink">
    <title>google</title>
    <g id="App" stroke="none" stroke-width="1" fill="none" fill-rule="evenodd">
        <g id="Login" transform="translate(-52.000000, -642.000000)" fill-rule="nonzero">
            <g id="LoginGoogle" transform="translate(25.000000, 630.000000)">
                <g id="google" transform="translate(27.000000, 12.000000)">
                    <path d="M24.05262,11.0004885 L13.8182498,11 C13.3663183,11 13,11.3651197 13,11.8156326 L13,15.0747924 C13,15.5252076 13.3663183,15.890425 13.8182008,15.890425 L19.5815763,15.890425 C18.9504796,17.523107 17.7725764,18.890425 16.2697646,19.7592086 L18.7272582,24 C22.6693824,21.7272594 25,17.7395213 25,13.2755252 C25,12.6399121 24.9530034,12.1855398 24.8590103,11.673913 C24.7875599,11.2851979 24.4490278,11.0004885 24.05262,11.0004885 Z" id="Path" fill="#167EE6"></path>
                    <path d="M11.7755479,19.9393723 C8.97678131,19.9393723 6.53348933,18.3507715 5.22124838,16 L1,18.5276364 C3.14816542,22.3954242 7.17237098,25 11.7755479,25 C14.033711,25 16.1644674,24.3683688 18,23.2676239 L18,23.2616122 L15.561425,18.8761121 C14.4459837,19.5482086 13.1551879,19.9393723 11.7755479,19.9393723 Z" id="Path" fill="#12B347"></path>
                    <path d="M18,23.3026703 L18,23.2967803 L15.6493594,19 C14.5741406,19.6584503 13.3299844,20.0417502 12,20.0417502 L12,25 C14.1767344,25 16.23075,24.3811468 18,23.3026703 Z" id="Path" fill="#0F993E"></path>
                    <path d="M4.95841342,12 C4.95841342,10.6689657 5.341627,9.42369859 6,8.34752622 L1.70327594,6 C0.618824092,7.7654069 0,9.81565674 0,12 C0,14.1843433 0.618824092,16.2345931 1.70327594,18 L6,15.6524738 C5.341627,14.5763014 4.95841342,13.3310343 4.95841342,12 Z" id="Path" fill="#FFD500"></path>
                    <path d="M12.6570652,5.06062766 C14.462075,5.06062766 16.1200619,5.73434071 17.4150846,6.85498981 C17.734572,7.13142636 18.198918,7.1114716 18.491569,6.80406729 L20.7649646,4.41606372 C21.0970045,4.06728486 21.0733423,3.49637671 20.7186503,3.17316015 C18.5488968,1.19592148 15.7257886,0 12.6570652,0 C8.1045026,0 4.12454524,2.60457584 2,6.47236364 L6.17483359,9 C7.47264577,6.64922847 9.88907251,5.06062766 12.6570652,5.06062766 Z" id="Path" fill="#FF4B26"></path>
                    <path d="M17.1327693,6.80707261 C17.47742,7.08157683 17.9783906,7.06176156 18.2940394,6.75650604 L20.7464917,4.3851949 C21.1046317,4.03885405 21.0791058,3.47193662 20.6965295,3.15097938 C18.3558825,1.18751168 15.3104214,0 12,0 L12,5.02525327 C13.9471236,5.02525327 15.7357483,5.69425698 17.1327693,6.80707261 Z" id="Path" fill="#D93F21"></path>
                </g>
            </g>
        </g>
    </g>
</svg>