<svg width="42" height="42" viewBox="0 0 42 42" fill="none" xmlns="http://www.w3.org/2000/svg">
<circle cx="21" cy="21" r="21" fill="url(#paint0_linear)"/>
<path d="M32.9279 16.0525C32.8694 14.7752 32.6666 13.9029 32.3699 13.1397C32.0687 12.339 31.5963 11.6137 30.9858 11.0142C30.3865 10.4037 29.6611 9.9311 28.8604 9.6297C28.097 9.33325 27.2249 9.13056 25.9475 9.07251C24.6678 9.01392 24.2589 9 21 9C17.7411 9 17.3322 9.01392 16.0525 9.07214C14.7751 9.13056 13.903 9.33344 13.1396 9.63007C12.3389 9.93128 11.6136 10.4037 11.0142 11.0142C10.4037 11.6135 9.93109 12.3388 9.6297 13.1395C9.33325 13.9029 9.13055 14.7752 9.07251 16.0524C9.01392 17.3323 9 17.741 9 20.9999C9 24.259 9.01392 24.6679 9.07251 25.9476C9.13074 27.2248 9.33362 28.0971 9.63025 28.8605C9.93146 29.661 10.4039 30.3865 11.0143 30.9858C11.6136 31.5963 12.3391 32.0687 13.1398 32.3699C13.903 32.6667 14.7753 32.8694 16.0527 32.9279C17.3326 32.9863 17.7413 33 21.0002 33C24.2591 33 24.668 32.9863 25.9477 32.9279C27.225 32.8694 28.0972 32.6667 28.8605 32.3699C30.4724 31.7466 31.7466 30.4724 32.3699 28.8605C32.6667 28.0971 32.8694 27.2248 32.9279 25.9476C32.9861 24.6677 33 24.259 33 21.0001C33 17.741 32.9861 17.3323 32.9279 16.0525ZM30.7678 25.8493C30.7145 27.0194 30.5189 27.6547 30.3547 28.0775C29.9509 29.1242 29.1238 29.9513 28.0772 30.355C27.6544 30.5193 27.019 30.7148 25.849 30.7681C24.5839 30.826 24.2043 30.8381 21 30.8381C17.7955 30.8381 17.4161 30.826 16.1508 30.7681C14.981 30.7148 14.3456 30.5193 13.9226 30.355C13.4015 30.1626 12.93 29.8559 12.5429 29.4572C12.1443 29.0702 11.8376 28.5988 11.6451 28.0775C11.4809 27.6547 11.2853 27.0194 11.2321 25.8493C11.1744 24.584 11.1621 24.2045 11.1621 21.0003C11.1621 17.7959 11.1744 17.4165 11.2321 16.1511C11.2855 14.981 11.4809 14.3456 11.6451 13.9228C11.8376 13.4015 12.1445 12.93 12.5429 12.5429C12.93 12.1443 13.4015 11.8376 13.9228 11.6453C14.3456 11.4809 14.981 11.2855 16.151 11.2321C17.4163 11.1744 17.7958 11.1621 21 11.1621H20.9998C24.204 11.1621 24.5836 11.1744 25.849 11.2323C27.019 11.2855 27.6542 11.4811 28.0772 11.6453C28.5983 11.8378 29.0698 12.1445 29.4569 12.5429C29.8555 12.93 30.1622 13.4015 30.3545 13.9228C30.5189 14.3456 30.7145 14.981 30.7678 16.1511C30.8254 17.4163 30.8377 17.7959 30.8377 21.0001C30.8377 24.2045 30.8256 24.5839 30.7678 25.8493Z" fill="white"/>
<path d="M21.0008 14.8388C17.5976 14.8388 14.8387 17.5979 14.8387 21.0011C14.8387 24.4043 17.5976 27.1632 21.0008 27.1632C24.4042 27.1632 27.163 24.4043 27.163 21.0011C27.163 17.5979 24.4042 14.8388 21.0008 14.8388ZM21.0008 25.0011C18.7918 25.0009 17.0009 23.2101 17.001 21.0009C17.001 18.7919 18.7918 17.0009 21.001 17.0009C23.2101 17.0011 25.0009 18.7919 25.0009 21.0009C25.0009 23.2101 23.21 25.0011 21.0008 25.0011Z" fill="white"/>
<path d="M28.846 14.5947C28.846 15.39 28.2012 16.0349 27.4058 16.0349C26.6103 16.0349 25.9655 15.39 25.9655 14.5947C25.9655 13.7991 26.6103 13.1543 27.4058 13.1543C28.2012 13.1543 28.846 13.7991 28.846 14.5947Z" fill="white"/>
<defs>
<linearGradient id="paint0_linear" x1="21" y1="61.3615" x2="21" y2="-18.9671" gradientUnits="userSpaceOnUse">
<stop stop-color="#E09B3D"/>
<stop offset="0.3" stop-color="#C74C4D"/>
<stop offset="0.6" stop-color="#C21975"/>
<stop offset="1" stop-color="#7024C4"/>
</linearGradient>
</defs>
</svg>
