<svg width="42" height="42" viewBox="0 0 42 42" fill="none" xmlns="http://www.w3.org/2000/svg">
<circle cx="21" cy="21" r="21" fill="#436EAB"/>
<path d="M28.9157 22.9781C28.5277 22.4912 28.6387 22.2745 28.9157 21.8393C28.9207 21.8343 32.1238 17.4358 32.4538 15.9441L32.4558 15.9431C32.6198 15.3995 32.4558 15 31.6628 15H29.0387C28.3707 15 28.0627 15.3429 27.8977 15.7265C27.8977 15.7265 26.5616 18.9046 24.6715 20.9647C24.0615 21.56 23.7795 21.7508 23.4465 21.7508C23.2825 21.7508 23.0275 21.56 23.0275 21.0164V15.9431C23.0275 15.2912 22.8405 15 22.2875 15H18.1613C17.7423 15 17.4933 15.3041 17.4933 15.5873C17.4933 16.2055 18.4383 16.3476 18.5363 18.0867V21.8601C18.5363 22.687 18.3853 22.839 18.0503 22.839C17.1583 22.839 14.9932 19.6479 13.7102 15.9958C13.4512 15.2872 13.1981 15.001 12.5251 15.001H9.90003C9.15101 15.001 9 15.3439 9 15.7275C9 16.4052 9.89203 19.7752 13.1481 24.2273C15.3182 27.2663 18.3743 28.913 21.1544 28.913C22.8255 28.913 23.0295 28.5473 23.0295 27.9183C23.0295 25.0144 22.8785 24.7401 23.7155 24.7401C24.1035 24.7401 24.7715 24.9309 26.3316 26.3968C28.1147 28.1349 28.4077 28.913 29.4057 28.913H32.0298C32.7778 28.913 33.1568 28.5473 32.9388 27.8258C32.4398 26.3083 29.0677 23.1868 28.9157 22.9781Z" fill="white"/>
</svg>
